<?xml version="1.0" standalone="no"?>
<!DOCTYPE svg PUBLIC "-//W3C//DTD SVG 20010904//EN"
 "http://www.w3.org/TR/2001/REC-SVG-20010904/DTD/svg10.dtd">
<svg version="1.0" xmlns="http://www.w3.org/2000/svg"
 width="512.000000pt" height="512.000000pt" viewBox="0 0 512.000000 512.000000"
 preserveAspectRatio="xMidYMid meet">

<g transform="translate(0.000000,512.000000) scale(0.100000,-0.100000)"
fill="#000000" stroke="none">
<path d="M1228 4508 l-3 -613 -612 -3 -613 -2 0 -90 0 -90 612 -2 613 -3 3
-1214 2 -1215 22 -23 21 -23 1216 -2 1216 -3 3 -613 2 -612 90 0 90 0 2 612 3
613 613 3 612 2 0 90 0 90 -1852 2 -1853 3 -3 1853 -2 1852 -90 0 -90 0 -2
-612z"/>
<path d="M2170 3800 l0 -90 768 -2 767 -3 3 -782 2 -783 90 0 90 0 0 849 c0
843 0 848 -21 875 l-20 26 -840 0 -839 0 0 -90z"/>
</g>
</svg>
