<?xml version="1.0" standalone="no"?>
<!DOCTYPE svg PUBLIC "-//W3C//DTD SVG 20010904//EN"
 "http://www.w3.org/TR/2001/REC-SVG-20010904/DTD/svg10.dtd">
<svg version="1.0" xmlns="http://www.w3.org/2000/svg"
 width="512.000000pt" height="512.000000pt" viewBox="0 0 512.000000 512.000000"
 preserveAspectRatio="xMidYMid meet">

<g transform="translate(0.000000,512.000000) scale(0.100000,-0.100000)"
fill="#000000" stroke="none">
<path d="M240 4387 c-49 -16 -133 -102 -148 -153 -17 -60 -17 -3288 0 -3348
16 -55 99 -138 154 -154 60 -18 4568 -18 4628 0 55 16 138 99 154 154 17 59
18 3288 0 3346 -6 22 -31 62 -55 88 -79 88 155 80 -2417 79 -1633 -1 -2291 -4
-2316 -12z m4615 -172 c25 -24 25 -24 25 -240 l0 -215 -2320 0 -2320 0 0 215
c0 216 0 216 25 240 l24 25 2271 0 2271 0 24 -25z m25 -1950 l0 -1336 -25 -24
-24 -25 -2271 0 -2271 0 -24 25 -25 24 0 1336 0 1335 2320 0 2320 0 0 -1335z"/>
<path d="M400 4000 l0 -80 80 0 80 0 0 80 0 80 -80 0 -80 0 0 -80z"/>
<path d="M720 4000 l0 -80 80 0 80 0 0 80 0 80 -80 0 -80 0 0 -80z"/>
<path d="M1040 4000 l0 -80 80 0 80 0 0 80 0 80 -80 0 -80 0 0 -80z"/>
<path d="M495 3426 c-41 -18 -83 -69 -90 -109 -3 -18 -5 -370 -3 -784 3 -741
3 -752 24 -779 11 -15 33 -37 48 -48 27 -21 32 -21 1126 -21 1094 0 1099 0
1126 21 15 11 37 33 48 48 21 27 21 35 21 806 0 771 0 779 -21 806 -11 15 -33
37 -48 48 -27 21 -34 21 -1114 23 -888 2 -1093 0 -1117 -11z m2145 -866 l0
-720 -198 0 -198 0 34 69 c29 59 35 83 40 161 l5 92 -250 -4 -249 -3 -72 -36
-72 -35 0 118 0 118 68 0 c228 0 420 148 477 367 18 69 20 210 3 267 -16 55
-99 138 -154 154 -83 24 -201 7 -295 -44 l-47 -26 -58 46 c-33 25 -66 46 -74
46 -8 0 -41 -21 -74 -46 l-58 -46 -47 26 c-94 51 -212 68 -295 44 -55 -16
-138 -99 -154 -154 -17 -57 -15 -198 3 -267 57 -219 249 -367 477 -367 l68 0
0 -240 0 -240 -480 0 -480 0 0 720 0 720 1040 0 1040 0 0 -720z m-1352 385
c28 -9 53 -19 56 -24 3 -5 -9 -35 -27 -67 -28 -52 -32 -68 -32 -134 0 -79 17
-125 72 -197 29 -40 17 -42 -53 -9 -64 30 -116 81 -151 149 -22 43 -28 69 -31
149 -4 93 -3 98 21 122 31 31 69 33 145 11z m769 -11 c24 -24 25 -29 21 -122
-5 -111 -30 -173 -94 -238 -34 -34 -124 -84 -151 -84 -6 0 3 22 22 50 74 110
83 212 26 316 -17 31 -28 61 -25 65 8 13 95 38 137 38 28 1 45 -6 64 -25z
m-390 -57 c124 -133 120 -200 -21 -337 l-46 -44 -46 44 c-101 99 -130 168 -98
235 18 38 129 165 144 165 4 0 34 -28 67 -63z m473 -893 c0 -27 -101 -119
-146 -132 -23 -7 -98 -12 -168 -12 -108 0 -126 2 -126 16 0 24 101 119 140
131 19 6 95 11 168 12 113 1 132 -1 132 -15z"/>
<path d="M2960 3120 l0 -320 880 0 880 0 0 320 0 320 -880 0 -880 0 0 -320z
m1600 0 l0 -160 -720 0 -720 0 0 160 0 160 720 0 720 0 0 -160z"/>
<path d="M2960 2320 l0 -320 880 0 880 0 0 320 0 320 -880 0 -880 0 0 -320z
m1600 0 l0 -160 -720 0 -720 0 0 160 0 160 720 0 720 0 0 -160z"/>
<path d="M2960 1440 l0 -400 240 0 240 0 0 400 0 400 -240 0 -240 0 0 -400z
m320 0 l0 -240 -80 0 -80 0 0 240 0 240 80 0 80 0 0 -240z"/>
<path d="M3600 1440 l0 -400 240 0 240 0 0 400 0 400 -240 0 -240 0 0 -400z
m320 0 l0 -240 -80 0 -80 0 0 240 0 240 80 0 80 0 0 -240z"/>
<path d="M4240 1440 l0 -400 240 0 240 0 0 400 0 400 -240 0 -240 0 0 -400z
m320 0 l0 -240 -80 0 -80 0 0 240 0 240 80 0 80 0 0 -240z"/>
<path d="M882 1507 c-43 -13 -116 -78 -132 -117 l-12 -30 -169 0 -169 0 0 -80
0 -80 169 0 169 0 12 -30 c28 -68 129 -130 210 -130 81 0 182 62 210 130 l12
30 809 0 809 0 0 80 0 80 -809 0 -809 0 -12 30 c-17 42 -90 104 -138 118 -47
14 -105 14 -150 -1z m133 -172 c16 -15 25 -36 25 -55 0 -19 -9 -40 -25 -55
-15 -16 -36 -25 -55 -25 -19 0 -40 9 -55 25 -16 15 -25 36 -25 55 0 19 9 40
25 55 15 16 36 25 55 25 19 0 40 -9 55 -25z"/>
</g>
</svg>
