<?xml version="1.0" standalone="no"?>
<!DOCTYPE svg PUBLIC "-//W3C//DTD SVG 20010904//EN"
 "http://www.w3.org/TR/2001/REC-SVG-20010904/DTD/svg10.dtd">
<svg version="1.0" xmlns="http://www.w3.org/2000/svg"
 width="512.000000pt" height="512.000000pt" viewBox="0 0 512.000000 512.000000"
 preserveAspectRatio="xMidYMid meet">

<g transform="translate(0.000000,512.000000) scale(0.100000,-0.100000)"
fill="#000000" stroke="none">
<path d="M2386 5099 c-20 -16 -26 -29 -26 -60 0 -37 4 -43 115 -136 l114 -98
-122 -7 c-500 -28 -937 -193 -1312 -495 -438 -353 -722 -848 -812 -1418 -24
-155 -24 -498 0 -650 110 -675 487 -1243 1057 -1591 117 -71 287 -153 334
-161 61 -10 107 60 76 117 -6 10 -74 50 -153 88 -558 273 -952 752 -1108 1347
-160 611 -32 1259 349 1772 85 113 302 330 415 415 251 187 543 317 847 377
108 22 334 44 393 39 l39 -3 -115 -97 c-76 -64 -116 -105 -119 -121 -6 -32 14
-82 37 -91 51 -19 69 -8 276 167 122 103 207 182 213 198 18 53 2 73 -192 237
-103 87 -198 166 -212 175 -33 23 -62 21 -94 -4z"/>
<path d="M3355 4629 c-41 -23 -56 -68 -39 -114 4 -9 61 -42 128 -74 444 -211
782 -547 991 -984 347 -726 246 -1577 -263 -2208 -83 -103 -280 -291 -381
-363 -260 -186 -532 -306 -831 -365 -108 -22 -334 -44 -393 -39 l-38 3 111 94
c61 51 116 105 121 119 12 31 -4 78 -32 92 -49 27 -69 15 -277 -160 -111 -94
-207 -180 -213 -191 -6 -12 -8 -36 -5 -53 5 -26 38 -59 182 -182 273 -232 270
-230 325 -175 53 53 39 81 -101 196 l-109 90 122 7 c601 36 1114 267 1517 684
330 342 530 748 607 1229 24 153 24 487 0 644 -76 482 -278 894 -606 1234
-185 191 -386 339 -616 452 -145 72 -171 80 -200 64z"/>
</g>
</svg>
