<?xml version="1.0" standalone="no"?>
<!DOCTYPE svg PUBLIC "-//W3C//DTD SVG 20010904//EN"
 "http://www.w3.org/TR/2001/REC-SVG-20010904/DTD/svg10.dtd">
<svg version="1.0" xmlns="http://www.w3.org/2000/svg"
 width="512.000000pt" height="512.000000pt" viewBox="0 0 512.000000 512.000000"
 preserveAspectRatio="xMidYMid meet">

<g transform="translate(0.000000,512.000000) scale(0.100000,-0.100000)"
fill="#000000" stroke="none">
<path d="M2335 4789 c-246 -27 -522 -106 -742 -213 -197 -96 -360 -205 -523
-350 l-75 -66 -6 237 c-3 131 -6 239 -7 240 -1 2 -18 21 -38 43 -60 66 -148
74 -218 19 -57 -45 -56 -37 -56 -554 0 -528 -2 -509 67 -562 l36 -28 488 0
c479 0 488 0 516 21 98 73 98 195 0 268 -27 20 -44 21 -319 26 l-290 5 83 80
c286 273 655 447 1062 501 178 24 448 14 617 -21 174 -36 321 -87 479 -166
533 -264 902 -745 1026 -1339 35 -169 45 -439 21 -617 -75 -566 -385 -1055
-871 -1373 -99 -64 -270 -148 -390 -190 -1055 -370 -2197 232 -2489 1312 -34
126 -54 258 -64 422 -9 147 -16 165 -76 210 -39 29 -133 29 -172 0 -64 -47
-69 -63 -68 -212 3 -431 165 -894 446 -1270 93 -125 316 -348 442 -442 307
-229 637 -364 1051 -431 122 -20 484 -17 620 5 508 82 939 304 1286 663 261
271 447 594 545 951 61 223 77 348 78 597 1 262 -18 400 -86 635 -213 742
-831 1344 -1575 1535 -243 62 -570 89 -798 64z"/>
</g>
</svg>
