<?xml version="1.0" standalone="no"?>
<!DOCTYPE svg PUBLIC "-//W3C//DTD SVG 20010904//EN"
 "http://www.w3.org/TR/2001/REC-SVG-20010904/DTD/svg10.dtd">
<svg version="1.0" xmlns="http://www.w3.org/2000/svg"
 width="512.000000pt" height="512.000000pt" viewBox="0 0 512.000000 512.000000"
 preserveAspectRatio="xMidYMid meet">

<g transform="translate(0.000000,512.000000) scale(0.100000,-0.100000)"
fill="#000000" stroke="none">
<path d="M2504 5103 c-31 -18 -570 -619 -592 -660 -7 -12 -12 -40 -12 -63 0
-34 6 -48 34 -76 28 -28 41 -34 77 -34 25 0 55 8 70 18 14 9 99 100 190 202
l164 185 3 -994 c1 -547 1 -996 -1 -998 -2 -2 -451 -2 -997 -1 l-994 3 179
159 c234 207 244 219 224 291 -19 69 -108 108 -171 74 -21 -11 -634 -554 -655
-580 -23 -28 -26 -91 -6 -125 18 -31 619 -570 660 -592 12 -7 40 -12 63 -12
34 0 48 6 76 34 28 28 34 41 34 78 0 24 -8 54 -18 69 -9 14 -100 100 -201 190
l-185 164 994 3 c546 1 995 1 997 -1 2 -2 2 -451 1 -997 l-3 -994 -159 179
c-207 234 -219 244 -291 224 -69 -19 -108 -108 -74 -171 11 -21 554 -634 580
-655 28 -23 91 -26 125 -6 31 18 570 619 592 660 7 12 12 40 12 63 0 34 -6 48
-34 76 -28 28 -41 34 -77 34 -25 0 -55 -8 -70 -18 -14 -9 -100 -100 -190 -201
l-164 -185 -3 994 c-1 546 -1 995 1 997 2 2 451 2 997 1 l994 -3 -179 -159
c-234 -207 -244 -219 -224 -291 19 -69 108 -108 171 -74 21 11 634 554 655
580 23 28 26 91 6 125 -17 30 -622 572 -662 594 -28 14 -87 12 -120 -5 -52
-26 -71 -121 -34 -168 10 -13 101 -97 202 -188 l185 -164 -994 -3 c-546 -1
-995 -1 -997 1 -2 2 -2 451 -1 997 l3 994 159 -179 c207 -234 219 -244 291
-224 69 19 108 108 74 171 -11 21 -554 634 -580 655 -28 23 -91 26 -125 6z"/>
</g>
</svg>
