<?xml version="1.0" standalone="no"?>
<!DOCTYPE svg PUBLIC "-//W3C//DTD SVG 20010904//EN"
 "http://www.w3.org/TR/2001/REC-SVG-20010904/DTD/svg10.dtd">
<svg version="1.0" xmlns="http://www.w3.org/2000/svg"
 width="512.000000pt" height="512.000000pt" viewBox="0 0 512.000000 512.000000"
 preserveAspectRatio="xMidYMid meet">

<g transform="translate(0.000000,512.000000) scale(0.100000,-0.100000)"
fill="#000000" stroke="none">
<path d="M605 4948 c-27 -5 -86 -27 -131 -48 -152 -73 -274 -232 -303 -394
-15 -83 -15 -3809 0 -3892 35 -194 186 -361 389 -430 53 -18 125 -19 2000 -19
1875 0 1947 1 2000 19 182 62 311 188 372 364 l23 67 0 1945 c0 1875 -1 1947
-19 2000 -31 92 -76 166 -136 229 -65 66 -121 102 -219 140 l-66 26 -1930 1
c-1180 1 -1949 -2 -1980 -8z m3967 -190 c91 -45 147 -103 191 -196 l32 -67 0
-1935 0 -1935 -32 -67 c-44 -93 -100 -151 -191 -196 l-76 -37 -1935 0 -1936 0
-67 32 c-93 44 -151 100 -196 191 l-37 76 0 1935 0 1936 32 67 c17 37 50 87
72 111 44 48 135 101 197 116 23 5 821 8 1955 8 l1915 -2 76 -37z"/>
<path d="M3600 4560 l0 -80 80 0 80 0 0 80 0 80 -80 0 -80 0 0 -80z"/>
<path d="M3920 4560 l0 -80 255 0 256 0 24 -25 c25 -24 25 -24 25 -240 l0
-215 80 0 80 0 0 216 c0 139 -4 231 -12 256 -6 22 -31 62 -55 88 -68 75 -90
80 -395 80 l-258 0 0 -80z"/>
<path d="M2775 3679 c-368 -37 -688 -71 -710 -74 -57 -8 -101 -38 -125 -84
-19 -39 -20 -56 -20 -618 l0 -579 -69 -10 c-191 -30 -347 -172 -396 -359 -65
-251 94 -513 350 -580 251 -65 513 94 580 352 12 47 15 148 15 570 l0 513 23
5 c40 9 746 125 761 125 14 0 16 -29 16 -228 l0 -228 -69 -10 c-278 -44 -465
-321 -396 -587 67 -258 329 -417 578 -352 178 46 320 193 356 367 8 37 11 317
9 900 -3 841 -3 847 -24 875 -39 53 -81 73 -148 72 -34 -1 -362 -32 -731 -70z
m745 -908 c0 -912 3 -872 -69 -967 -23 -31 -59 -60 -101 -83 -60 -33 -71 -36
-150 -36 -79 0 -90 3 -150 36 -231 127 -223 452 15 569 41 20 66 25 140 26 50
0 99 4 111 7 41 14 44 41 44 403 l0 345 -25 24 c-13 14 -32 25 -42 25 -10 0
-241 -37 -513 -82 -439 -73 -498 -85 -517 -105 l-23 -22 0 -559 c0 -624 1
-616 -69 -708 -23 -31 -59 -60 -101 -83 -60 -33 -71 -36 -150 -36 -79 0 -90 3
-150 36 -231 127 -223 452 15 569 41 20 66 25 140 26 108 1 128 6 143 40 9 18
12 197 12 639 l0 615 28 1 c15 0 324 31 687 68 363 38 675 69 693 70 l32 1 0
-819z"/>
<path d="M480 944 c0 -172 4 -270 12 -298 16 -55 99 -138 154 -154 28 -8 126
-12 298 -12 l256 0 0 80 0 80 -255 0 -256 0 -24 25 -25 24 0 256 0 255 -80 0
-80 0 0 -256z"/>
<path d="M1360 560 l0 -80 80 0 80 0 0 80 0 80 -80 0 -80 0 0 -80z"/>
</g>
</svg>
