<?xml version="1.0" standalone="no"?>
<!DOCTYPE svg PUBLIC "-//W3C//DTD SVG 20010904//EN"
 "http://www.w3.org/TR/2001/REC-SVG-20010904/DTD/svg10.dtd">
<svg version="1.0" xmlns="http://www.w3.org/2000/svg"
 width="512.000000pt" height="512.000000pt" viewBox="0 0 512.000000 512.000000"
 preserveAspectRatio="xMidYMid meet">

<g transform="translate(0.000000,512.000000) scale(0.100000,-0.100000)"
fill="#000000" stroke="none">
<path d="M2009 4947 c-117 -60 -159 -146 -159 -324 l0 -103 -358 0 c-387 0
-408 -2 -517 -57 -64 -33 -165 -134 -198 -198 -50 -100 -57 -144 -57 -360 0
-244 -5 -235 118 -235 45 0 82 -1 82 -2 1 -2 45 -735 99 -1631 l99 -1627 30
-63 c36 -76 95 -137 170 -174 l57 -28 1185 0 1185 0 56 27 c114 56 183 155
200 286 6 42 50 754 99 1582 50 828 92 1533 96 1568 l6 62 82 0 c120 0 116 -8
116 236 0 214 -7 259 -56 356 -34 68 -124 160 -191 195 -114 61 -132 63 -525
63 l-358 0 0 103 c0 179 -43 265 -159 325 l-64 32 -488 0 -487 0 -63 -33z
m1066 -137 c43 -39 55 -80 55 -185 l0 -95 -570 0 -570 0 0 98 c0 112 15 153
69 190 l35 23 477 -3 477 -3 27 -25z m930 -437 c191 -63 272 -209 263 -476
l-3 -88 -1705 0 -1705 0 -3 98 c-5 184 27 293 111 374 53 52 122 87 189 97 81
11 2817 6 2853 -5z m51 -790 c-4 -43 -47 -753 -96 -1578 -49 -825 -92 -1518
-95 -1540 -8 -57 -44 -115 -93 -150 l-44 -30 -1168 0 -1168 0 -44 30 c-49 36
-85 93 -93 150 -3 22 -45 717 -95 1545 -49 828 -92 1538 -96 1578 l-6 72 1502
0 1502 0 -6 -77z"/>
<path d="M1814 3009 c-18 -20 -19 -53 -19 -1069 0 -1016 1 -1049 19 -1069 24
-27 70 -27 96 -1 20 20 20 33 20 1073 0 1008 -1 1055 -18 1070 -26 24 -75 21
-98 -4z"/>
<path d="M2510 3010 c-20 -20 -20 -33 -20 -1068 l0 -1049 23 -21 c30 -28 68
-28 95 1 l22 23 0 1047 c0 1034 0 1047 -20 1067 -11 11 -33 20 -50 20 -17 0
-39 -9 -50 -20z"/>
<path d="M3207 3012 c-16 -17 -17 -106 -17 -1070 0 -1039 0 -1052 20 -1072 26
-26 72 -26 96 1 18 20 19 53 19 1069 0 1016 -1 1049 -19 1069 -24 26 -77 28
-99 3z"/>
</g>
</svg>
