<?xml version="1.0" standalone="no"?>
<!DOCTYPE svg PUBLIC "-//W3C//DTD SVG 20010904//EN"
 "http://www.w3.org/TR/2001/REC-SVG-20010904/DTD/svg10.dtd">
<svg version="1.0" xmlns="http://www.w3.org/2000/svg"
 width="512.000000pt" height="512.000000pt" viewBox="0 0 512.000000 512.000000"
 preserveAspectRatio="xMidYMid meet">

<g transform="translate(0.000000,512.000000) scale(0.100000,-0.100000)"
fill="#000000" stroke="none">
<path d="M2125 4918 c-369 -37 -742 -172 -1063 -385 -488 -323 -843 -823 -987
-1387 -54 -215 -69 -342 -69 -586 0 -244 15 -371 69 -586 64 -251 174 -499
313 -709 103 -154 169 -236 290 -359 475 -483 1103 -736 1767 -713 573 20
1087 228 1523 617 90 80 243 249 309 341 l31 45 -141 99 c-77 55 -146 103
-152 107 -7 4 -44 -33 -95 -98 -277 -350 -703 -608 -1153 -699 -227 -46 -512
-52 -722 -14 -867 154 -1518 820 -1650 1690 -22 138 -22 420 0 558 52 344 182
654 389 926 405 535 1052 830 1716 784 684 -47 1267 -411 1605 -1002 37 -65
66 -120 64 -121 -2 -2 -134 59 -293 135 -160 77 -293 138 -298 137 -9 -4 -158
-307 -158 -322 0 -12 1112 -551 1136 -551 9 0 116 212 289 570 233 484 272
571 259 578 -9 5 -85 42 -169 82 l-152 73 -128 -267 c-71 -146 -132 -270 -136
-275 -4 -5 -24 25 -44 65 -132 264 -374 562 -615 755 -251 203 -579 367 -896
448 -271 69 -566 92 -839 64z"/>
</g>
</svg>
